<svg width="53" height="53" viewBox="0 0 53 53" fill="none" xmlns="http://www.w3.org/2000/svg">
<path fill-rule="evenodd" clip-rule="evenodd" d="M14.7656 26.3672C14.7656 23.1641 15.8984 20.4297 18.1641 18.1641C20.4297 15.8984 23.1641 14.7656 26.3672 14.7656C29.5703 14.7656 32.3047 15.8984 34.5703 18.1641C36.8359 20.4297 37.9688 23.1641 37.9688 26.3672C37.9688 28.1135 37.6321 29.7204 36.9587 31.188L38.543 32.655C38.703 32.345 38.8534 32.0263 38.9941 31.6992C39.7168 30 40.0781 28.2227 40.0781 26.3672C40.0781 24.5117 39.7168 22.7441 38.9941 21.0645C38.2715 19.3652 37.2949 17.9004 36.0645 16.6699C34.834 15.4395 33.3691 14.4629 31.6699 13.7402C29.9902 13.0176 28.2227 12.6562 26.3672 12.6562C24.5117 12.6562 22.7344 13.0176 21.0352 13.7402C19.3555 14.4629 17.9004 15.4395 16.6699 16.6699C15.4395 17.9004 14.4629 19.3652 13.7402 21.0645C13.0176 22.7441 12.6562 24.5117 12.6562 26.3672C12.6562 28.2227 13.0176 30 13.7402 31.6992C14.4629 33.3789 15.4395 34.834 16.6699 36.0645C17.9004 37.2949 19.3555 38.2715 21.0352 38.9941C22.7344 39.7168 24.5117 40.0781 26.3672 40.0781C28.2227 40.0781 29.9902 39.7168 31.6699 38.9941C32.7749 38.5242 33.7808 37.9469 34.6876 37.2622L33.1251 35.8155C31.1695 37.251 28.9168 37.9688 26.3672 37.9688C23.1641 37.9688 20.4297 36.8359 18.1641 34.5703C15.8984 32.3047 14.7656 29.5703 14.7656 26.3672ZM36.2683 38.7259C35.6564 39.2177 35.0025 39.6685 34.3066 40.0781C31.8848 41.4844 29.2383 42.1875 26.3672 42.1875C23.4961 42.1875 20.8496 41.4844 18.4277 40.0781C16.0059 38.6523 14.082 36.7285 12.6562 34.3066C11.25 31.8848 10.5469 29.2383 10.5469 26.3672C10.5469 23.4961 11.25 20.8496 12.6562 18.4277C14.082 16.0059 16.0059 14.0918 18.4277 12.6855C20.8496 11.2598 23.4961 10.5469 26.3672 10.5469C29.2383 10.5469 31.8848 11.2598 34.3066 12.6855C36.7285 14.0918 38.6426 16.0059 40.0488 18.4277C41.4746 20.8496 42.1875 23.4961 42.1875 26.3672C42.1875 29.1723 41.507 31.763 40.146 34.1393L41.7427 35.6177C41.7939 35.5328 41.8445 35.4474 41.8945 35.3613C43.4961 32.6074 44.2969 29.6094 44.2969 26.3672C44.2969 23.125 43.4961 20.127 41.8945 17.373C40.293 14.6191 38.1152 12.4414 35.3613 10.8398C32.6074 9.23828 29.6094 8.4375 26.3672 8.4375C23.125 8.4375 20.127 9.23828 17.373 10.8398C14.6191 12.4414 12.4414 14.6191 10.8398 17.373C9.23828 20.127 8.4375 23.125 8.4375 26.3672C8.4375 29.6094 9.23828 32.6074 10.8398 35.3613C12.4414 38.1152 14.6191 40.293 17.373 41.8945C20.127 43.4961 23.125 44.2969 26.3672 44.2969C29.6094 44.2969 32.6074 43.4961 35.3613 41.8945C36.2448 41.3808 37.0689 40.8077 37.8337 40.1753L36.2683 38.7259ZM39.4035 41.6288C37.8773 42.9217 36.1295 43.9868 34.1602 44.8242C31.6797 45.8789 29.082 46.4062 26.3672 46.4062C23.6523 46.4062 21.0547 45.8789 18.5742 44.8242C16.0938 43.7695 13.9551 42.3535 12.1582 40.5762C10.3809 38.7793 8.96484 36.6406 7.91016 34.1602C6.85547 31.6797 6.32812 29.082 6.32812 26.3672C6.32812 23.6523 6.85547 21.0547 7.91016 18.5742C8.96484 16.0938 10.3809 13.9648 12.1582 12.1875C13.9551 10.3906 16.0938 8.96484 18.5742 7.91016C21.0547 6.85547 23.6523 6.32812 26.3672 6.32812C29.082 6.32812 31.6797 6.85547 34.1602 7.91016C36.6406 8.96484 38.7695 10.3906 40.5469 12.1875C42.3438 13.9648 43.7695 16.0938 44.8242 18.5742C45.8789 21.0547 46.4062 23.6523 46.4062 26.3672C46.4062 29.082 45.8789 31.6797 44.8242 34.1602C44.3859 35.191 43.8836 36.1627 43.3171 37.0755L44.8796 38.5222C45.1034 38.1795 45.3194 37.829 45.5273 37.4707C47.5195 34.0723 48.5156 30.3711 48.5156 26.3672C48.5156 22.3633 47.5195 18.6621 45.5273 15.2637C43.5547 11.8652 40.8691 9.17969 37.4707 7.20703C34.0723 5.21484 30.3711 4.21875 26.3672 4.21875C22.3633 4.21875 18.6621 5.21484 15.2637 7.20703C11.8652 9.17969 9.16992 11.8652 7.17773 15.2637C5.20508 18.6621 4.21875 22.3633 4.21875 26.3672C4.21875 30.3711 5.20508 34.0723 7.17773 37.4707C9.16992 40.8691 11.8652 43.5645 15.2637 45.5566C18.6621 47.5293 22.3633 48.5156 26.3672 48.5156C30.3711 48.5156 34.0723 47.5293 37.4707 45.5566C38.7272 44.8201 39.8862 43.9874 40.9477 43.0587L39.4035 41.6288ZM42.5071 44.5025C40.5628 46.2234 38.3176 47.6295 35.7715 48.7207C32.7832 49.9902 29.6484 50.625 26.3672 50.625C23.0859 50.625 19.9414 49.9902 16.9336 48.7207C13.9453 47.4316 11.3672 45.7031 9.19922 43.5352C7.03125 41.3672 5.30273 38.7891 4.01367 35.8008C2.74414 32.793 2.10938 29.6484 2.10938 26.3672C2.10938 23.0859 2.74414 19.9512 4.01367 16.9629C5.30273 13.9551 7.03125 11.3672 9.19922 9.19922C11.3672 7.03125 13.9453 5.3125 16.9336 4.04297C19.9414 2.75391 23.0859 2.10938 26.3672 2.10938C29.6484 2.10938 32.7832 2.75391 35.7715 4.04297C38.7793 5.3125 41.3672 7.03125 43.5352 9.19922C45.7031 11.3672 47.4219 13.9551 48.6914 16.9629C49.9805 19.9512 50.625 23.0859 50.625 26.3672C50.625 29.6484 49.9805 32.793 48.6914 35.8008C48.0565 37.2951 47.3094 38.6869 46.4498 39.9761L48.0029 41.4142C49.0146 39.9404 49.8886 38.3427 50.625 36.6211C52.0312 33.3594 52.7344 29.9414 52.7344 26.3672C52.7344 22.793 52.0312 19.3848 50.625 16.1426C49.2383 12.8809 47.3633 10.0781 45 7.73438C42.6562 5.37109 39.8535 3.49609 36.5918 2.10938C33.3496 0.703125 29.9414 0 26.3672 0C22.793 0 19.375 0.703125 16.1133 2.10938C12.8711 3.49609 10.0684 5.37109 7.70508 7.73438C5.36133 10.0781 3.48633 12.8809 2.08008 16.1426C0.693359 19.3848 0 22.793 0 26.3672C0 29.9414 0.693359 33.3594 2.08008 36.6211C3.48633 39.8633 5.36133 42.666 7.70508 45.0293C10.0684 47.373 12.8711 49.2383 16.1133 50.625C19.375 52.0312 22.793 52.7344 26.3672 52.7344C29.9414 52.7344 33.3496 52.0312 36.5918 50.625C39.4238 49.421 41.9097 47.8563 44.0497 45.9308L42.5071 44.5025Z" fill="#46B29D"/>
</svg>
